<svg xmlns="http://www.w3.org/2000/svg" viewBox="0 0 373.29 341.39">
  <defs>
    <linearGradient id="a" x1="103.5" y1="449.14" x2="108.7" y2="287.81" gradientUnits="userSpaceOnUse">
      <stop offset=".01"/>
      <stop offset="1" stop-opacity="0"/>
    </linearGradient>
    <linearGradient id="b" x1="213.02" y1="291.26" x2="193.92" y2="-174.5" gradientUnits="userSpaceOnUse">
      <stop offset=".01"/>
      <stop offset=".15" stop-opacity=".26"/>
      <stop offset="1" stop-opacity="0"/>
    </linearGradient>
    <linearGradient id="c" x1="225.71" y1="118.86" x2="35.6" y2="158.74" href="#a"/>
    <linearGradient id="d" x1="71.4" y1="225.39" x2="108.44" y2="227.42" href="#a"/>
    <linearGradient id="e" x1="114.43" y1="191.1" x2="120.08" y2="191.41" href="#a"/>
    <linearGradient id="f" x1="95.08" y1="190.6" x2="112.21" y2="191.54" href="#a"/>
    <linearGradient id="g" x1="115.54" y1="164.41" x2="128.13" y2="161.86" href="#a"/>
    <linearGradient id="h" x1="65" y1="192.43" x2="106.28" y2="162.27" href="#a"/>
    <linearGradient id="i" x1="76.4" y1="98.17" x2="63.03" y2="93.18" href="#a"/>
    <linearGradient id="j" x1="113.27" y1="105.27" x2="95.92" y2="82.07" href="#a"/>
    <linearGradient id="k" x1="91.73" y1="110.93" x2="84.32" y2="112.48" href="#a"/>
    <linearGradient id="l" x1="89.93" y1="172.12" x2="77" y2="166" href="#a"/>
    <linearGradient id="m" x1="147.76" y1="108.96" x2="178.69" y2="168.8" href="#a"/>
    <linearGradient id="n" x1="147.67" y1="161.8" x2="155.08" y2="176.12" href="#a"/>
    <path id="o" d="M68.89 87.61a13.24 13.24 0 00-4.6 6.05c-1.41 3.38-2 7.44-.11 10.58a8.78 8.78 0 007.93 4 11.43 11.43 0 008-4.26c2.72-3.29 5.61-11 2.48-14.9-2.88-3.58-10.19-3.83-13.7-1.47z"/>
    <path id="p" d="M99.52 76.24a20.7 20.7 0 0112.28-.94c5.43 1.24 10.54 5 12.09 10.39a15.15 15.15 0 01-.42 9 25.87 25.87 0 01-4.61 7.88.67.67 0 01-.39.28c-.2 0-.37-.13-.52-.26a8.46 8.46 0 00-3.4-1.52c-6.16-1.82-11.91-4.78-17.75-7.47-1.38-.63-3.05-1.24-4.33-.42a4.46 4.46 0 00-1.57 2.83 55.21 55.21 0 00-1.83 12 29.71 29.71 0 01-4.23-8 21.88 21.88 0 01-1.15-7.33c0-1.77 0-3.68 1.06-5.12s2.48-1 4-1.6c1.21-.51 1.75-2.25 2.48-3.25a19.52 19.52 0 018.29-6.47z"/>
    <path id="q" d="M155.27 150.86l36.58-52.18.97.61-35.12 52.15-2.43-.58z"/>
  </defs>
  <style>
    .a {fill:#3A2E39}
    .b {fill:#B594B6}
    .c {fill:#EDB183}
    .d {fill:#C4C2C4}
  </style>
  <path class="d" d="M161.55 339.38c57.14-1.72 117-4.18 166.38-32.93 23.47-13.66 45.26-36.79 43.47-63.88-1.77-26.78-25-46.07-43.28-65.74a223.2 223.2 0 01-53.78-102.06c-6.62-29.34-31.77-58.1-60-68.47-23.91-8.78-50.41-7.18-75.44-2.48-13.78 2.59-27.49 6.12-40.12 12.21-40.64 19.58-64.44 62.67-79.49 105.2-20.53 58-29.12 124.15-3.2 180 4.14 8.92 9.26 17.64 16.8 24 11.4 9.48 26.78 12.38 41.53 14.13 32.81 3.82 54.12 1.01 87.13.02z" opacity=".2"/>
  <path fill="url(#a)" d="M39.2,324.47a88.14,16.91,0,00,176.28,0,88.14,16.91,0,00-176.28,0"/>
  <path class="d" d="M64.61 16.38h308.68v181.21H64.61z"/>
  <path fill="url(#b)" d="M74.2 25.45h289.71v161.8H74.2z"/>
  <path d="M138.94 197.41s10.84-20.82 16.48-30.36 6.33-15.88 6.33-15.88l-14.08 6.24s-6 30.25-11.59 22.42-1-8.77-1-8.77-.43-10.62-1-13.87-5.68-21.36-12-21.94-7.8-2-7.8-2 .87-4.63 2.6-4.92a28.39 28.39 0 004.92-1.73l2.89-9 .29-8.39s1.15-5.2 2.31-6.36 4.33-18.43-4.77-21.68-18.87 15-18.87 15l-14.51 15.55 3 27.6a16.6 16.6 0 00-12.42 12.29c-2.8 10.66-6.27 32.87-6.27 32.87l1.46 5.64.71 6z" fill="url(#c)"/>
  <path class="b" d="M91.63 317.34a15.33 15.33 0 01-.89 3.51 17.12 17.12 0 01-3.58 6 10.63 10.63 0 01-6.1 3.28 5.12 5.12 0 01-3.55-.61 5.35 5.35 0 01-1.57-1.74 7.1 7.1 0 01-1-2.84c-.21-1.9.59-3.76 1.38-5.5l2.87-6.35a7.46 7.46 0 011.3-2.17 6.23 6.23 0 012.35-1.43 10 10 0 014.2-.83c1.54.08 3.39.77 4 2.25a14.08 14.08 0 01.59 6.43zM97.69 308.82a11 11 0 00-.81 7.77 38.21 38.21 0 011.25 4.16 14.6 14.6 0 010 3.17 1.7 1.7 0 00.32 1.35 1.16 1.16 0 001.51-.08 3.35 3.35 0 00.83-1.41l1.24-3.18c.08-.2.2-.44.41-.48a.69.69 0 01.49.18 60.11 60.11 0 004.89 3.54 10.63 10.63 0 005.71 1.69 14.74 14.74 0 004.88-1.35c.91-.37 1.94-.85 2.22-1.79a2.26 2.26 0 00-.57-2.06 6.94 6.94 0 00-1.78-1.34 64.71 64.71 0 01-9.28-6.84 7.17 7.17 0 00-1.75-1.25 9.26 9.26 0 00-2.63-.48 11.19 11.19 0 01-4.8-1.78c-.53-.39-1.75-.58-2.13.18z"/>
  <path class="c" d="M81.13 310.99c-.81 2.33-1.92 4.6-2.08 7.05a3.46 3.46 0 00.31 1.91 3.15 3.15 0 002.46 1.38 7.49 7.49 0 006.71-3.43 15.17 15.17 0 002.29-7.48c.22-2.63.06-5.29.4-7.91 4.35-33.54 3.27-42.22 3-43.18-.51-2-2.79-2.88-4.81-3.2-2.19-.35-7.15-.32-7.46 2.28-.34 2.91 0 5.24.15 8.17.25 6.74.31 40.71-.97 44.41zM99.81 271.61c-.06 3.45-.38 6.89-.61 10.33-.59 8.42-.7 16.88-.81 25.32a12.53 12.53 0 00.39 4.07 11.25 11.25 0 002.56 3.84 9.35 9.35 0 002.6 2.28 2.81 2.81 0 003.14-.25 4.09 4.09 0 00.87-3.68 36.47 36.47 0 00-1.2-3.76c-.66-2.22 7.28-38.63 6.6-50.72a2.69 2.69 0 00-.39-1.5c-.24-.31-2.16.17-2.5 0a12.28 12.28 0 00-5.55-.81c-1.05.1-3.74.28-4.54 1.16-.94 1.05-.56 4.94-.58 6.33-.02 2.5.07 4.95.02 7.39z"/>
  <path class="a" d="M77.52 225.3c.77 11.11 2.42 22.21 1.92 33.31a2.38 2.38 0 00.29 1.59 2.71 2.71 0 001 .78c2.36 1.15 5.24 1.23 8 1.29l22.25.44c1.33 0 2.9 0 3.64-.94a2.86 2.86 0 00.51-1.33q4.49-22.92 7.08-46.05c.89-7.85 1.57-16-1.5-23.43-10.64 1.75-18.91.2-29.73-.51-3.83-.25-7.84 2.46-11.17 13.77a63 63 0 00-2.29 21.08z"/>
  <path d="M98.53 262.29l14.62.29a9.47 9.47 0 01-2.13.15l-22.25-.44c-2.74-.05-5.63-.14-8-1.29a2.71 2.71 0 01-1-.78 2.53 2.53 0 01-.3-1.6c.51-11.11-1.19-22.21-1.91-33.32a63 63 0 012.33-21.06c3.33-11.31 7.34-14 11.17-13.77 2.33.15 4.54.35 6.68.54-2.83 1.25-5.64 4.93-8.09 13.23a62.78 62.78 0 00-2.36 21.06c.72 11.11 2.42 22.21 1.91 33.32a2.52 2.52 0 00.29 1.6 2.82 2.82 0 001.06.78c2.35 1.15 5.23 1.24 7.98 1.29z" fill="url(#d)"/>
  <path d="M121.07 191.77c-1.95 0-3.87 0-5.79-.15 1.76-.13 3.58-.33 5.47-.64.11.26.22.53.32.79z" fill="url(#e)"/>
  <path d="M115.29 191.61a107.65 107.65 0 01-17.58-.61 6.46 6.46 0 013.07-.54c5.24.36 9.89.89 14.51 1.15z" fill="url(#f)"/>
  <path class="b" d="M130.34 159.82c.81 3.57.89 7.26 1.58 10.85.8 4.12 2.41 8.13 2.38 12.33a5.54 5.54 0 01-.25 1.86 4.36 4.36 0 01-2.42 2.42c-3 1.32-6.7-.26-8.73-2.86s-2.77-6-3.27-9.22c-1.36-8.89-1.4-17.91-1.42-26.9 0-1.67-6.22-9.27-4.18-9.83s9.59 6.87 10.49 8.33a43.29 43.29 0 015.82 13.02z"/>
  <path d="M131.12 187.47c-2.91.95-6.3-.6-8.22-3.05-2-2.6-2.77-6-3.27-9.22-1.36-8.88-1.4-17.92-1.41-26.9 0-1.67-6.23-9.27-4.19-9.84.74-.2 2.1.56 3.61 1.68 1 2.48 5.68 16.15 5.69 17.37 0 9-1.3 8.81.06 17.69.5 3.26 1.23 6.62 3.27 9.22a9 9 0 004.46 3.05z" fill="url(#g)"/>
  <path class="b" d="M80.51 142.28a8 8 0 00-2 2.91c-.71 2.12.16 4.44 1.21 6.42 2.14 4 5 7.58 7.54 11.41s1.83 6.85 2 11.41c.22 5-4.57 12.32-5.53 17.23a7.36 7.36 0 00-.14 2.68c.25 1.34 6.62 1.17 7.7 2a15 15 0 007 2.67 28.39 28.39 0 0016.87-2.2c2.57-1.26 5-3.12 6.08-5.78a16.73 16.73 0 00.67-6.47c-.08-4.54-3.44-8.67-1.41-12.74 1.06-2.13 2.59-4 3.57-6.2a14.11 14.11 0 00-.67-12.7c-1.19-2-2.89-3.74-3.86-5.88-1.28-2.8-1.32-6.3-3.54-8.43-1.84-1.78-4.63-2-7.18-2.2-3.32-.22-3-1-6.34-1.23-2.75-.18-5.36-.74-8.07-.25a26.17 26.17 0 00-7.58 2.64c-1.09.58-6.32 3.32-6.32 4.71z"/>
  <path d="M111.01 198.39a30.1 30.1 0 01-12.71.62 15.12 15.12 0 01-7-2.66c-1.08-.84-7.45-.67-7.7-2a7.36 7.36 0 01.14-2.68c1-4.91 5.75-12.23 5.53-17.23-.19-4.56.46-7.59-2-11.42s-5.41-7.41-7.55-11.41c-1.06-2-1.93-4.31-1.2-6.43.37-1.12 2.31-5.08 8.31-7.62a36.54 36.54 0 017.59-2.64 17.55 17.55 0 014.8-.06c-1.4.5-2.77 1.11-4.14 1.68-6 2.55-7.94 6.5-8.33 7.63-.72 2.12.15 4.44 1.21 6.42 2.14 4 5 7.58 7.54 11.41s1.82 6.85 2 11.4c.21 5-4.57 12.32-5.53 17.24a7.35 7.35 0 00-.14 2.68c.25 1.34 6.62 1.17 7.7 2a15.22 15.22 0 007 2.65 33.29 33.29 0 004.48.42z" fill="url(#h)"/>
  <path d="M101.06 145.33a19.61 19.61 0 003.6 2.18c1.2.62 2.43 1.2 3.66 1.76a.72.72 0 00.47.1.66.66 0 00.33-.27 4.3 4.3 0 00.31-4c-.47-1.32-1.27-2.5-1.82-3.79a14.18 14.18 0 00-1.77-3.87 8.43 8.43 0 00-2.79-1.9c-1.63-.82-5-2.38-6.18-.1-1 1.87.48 4.93 1.4 6.56a11.81 11.81 0 002.79 3.33z" fill="#fff"/>
  <use class="a" href="#o"/>
  <use href="#o" fill="url(#i)"/>
  <path class="a" d="M90.59 80.66a10.17 10.17 0 00-3.36.91 19.43 19.43 0 00-9.12 7.46 25.47 25.47 0 00-2.82 7.24 25.16 25.16 0 00-.74 11 25.66 25.66 0 003 7.34 21.35 21.35 0 002.23 3.34 21.89 21.89 0 004.51 3.66 15.65 15.65 0 004.63 2.38c4.08 1.09 8.37-1 11.65-3.61a27.45 27.45 0 008-10.17 21.56 21.56 0 001.55-12.74 27.85 27.85 0 00-1.85-5.6c-1.56-3.6-3.6-6.3-7.46-7.41-3.59-1.01-6.27-4.05-10.22-3.8z"/>
  <path class="c" d="M119.44 115.72c-.6 4.29-2.53 8.73-6.33 10.8-2 1.08-4.46 1.54-5.79 3.36-1.49 2-.93 4.83-.68 7.33a2.83 2.83 0 01-.1 1.33 2.7 2.7 0 01-1.8 1.27 17.11 17.11 0 01-6.32.75 1.78 1.78 0 01-1.92-1.66c-.81-3-.61-6.31-1.75-9.24a42.4 42.4 0 00-2.4-4.45 34.55 34.55 0 01-3.51-12.88 79.84 79.84 0 01-.33-13.3 12.2 12.2 0 01.69-3.89 12.36 12.36 0 012.3-3.4 19.13 19.13 0 016.1-5.17 12.8 12.8 0 019.91 0 20.48 20.48 0 018 6.1c5.21 6.19 4.98 15.41 3.93 23.05z"/>
  <path fill="#fff" opacity=".46" d="M91.44,109.15a7.52,7.52,0,00,15.04,0,7.52,7.52,0,00-15.04,0M108.15,107.86a6.96,6.96,0,00,13.94,0,6.96,6.96,0,00-13.94,0"/>
  <use href="#p" class="a"/>
  <use href="#p" fill="url(#j)"/>
  <path d="M86.29 106.19a3.26 3.26 0 00-2.19 2.39c-.64 2.29.37 4.71 1.63 6.73.71 1.13 1.72 2.33 3.06 2.3a1.28 1.28 0 001-.39 2 2 0 00.15-1.76 31.41 31.41 0 01-.55-6.71 2.52 2.52 0 00-3.1-2.56z" class="c"/>
  <path d="M87.88 111.72a1.42 1.42 0 01-.7-1.1c0-.4 0-.85-.21-1.16a1.06 1.06 0 00-.77-.32 1.17 1.17 0 00-.69.14 1.3 1.3 0 00-.33 1.31 5.77 5.77 0 002.32 3.65 1.48 1.48 0 001.14.34 1.24 1.24 0 00.77-1.33 5.87 5.87 0 00-.33-1.55 1.4 1.4 0 01-1.2.02z" fill="url(#k)"/>
  <path d="M76.84 218.76c.75 2.51 1.36 5.11 2.76 7.31s3.81 4 6.41 3.82a2.58 2.58 0 001.53-.51 2.89 2.89 0 00.73-1c1.22-2.45 1.5-5.58-.11-7.78a32.63 32.63 0 00-2.63-2.63c-2.66-2.86-2.88-7.13-3.48-11a89.9 89.9 0 00-3.25-12.8 5.29 5.29 0 00-1.36-2.56 5.42 5.42 0 00-2.22-.93c-2.35-.59-6.61-2.94-7.18.31-.48 2.73 1.34 7 2.17 9.53 1.99 6.09 4.58 12.09 6.63 18.24z" class="c"/>
  <path d="M134.29 167.82c.18-.05-.09-.26-.27-.21a9.07 9.07 0 00-2.14.81 3 3 0 00-1.42 1.73 4.28 4.28 0 00.05 1.85l1.78 10.61a3.32 3.32 0 00.89 2.08c1 .8 2.41.3 3.49-.32q1-.57 1.92-1.23a2 2 0 001-2.41 54.56 54.56 0 00-1.68-10.33c-.38-1.27-1-2.69-2.33-3a4.12 4.12 0 00-2.43.48" class="b"/>
  <path d="M139.39 166.37a13 13 0 00-3.61 4.28 10.05 10.05 0 00-.62 3.57 11.63 11.63 0 00.92 5.61 3.09 3.09 0 001.87 1.76c1.18.28 2.31-.56 3.19-1.4 5.16-4.86 8.62-11.21 11.8-17.54a6.94 6.94 0 011.43-2.13 8.18 8.18 0 012.14-1.2c2.68-1.25 5.25-3.49 5.51-6.43a3.15 3.15 0 00-.27-1.72c-.67-1.27-2.34-1.56-3.78-1.64-1.25-.07-2.52-.11-3.78-.1a6.21 6.21 0 00-2.87.51c-2.67 1.41-2 5.26-3.65 7.47a65 65 0 01-8.28 8.96z" class="c"/>
  <path d="M72.29 158.03c-1.94 6.41-2.6 13.14-3 19.83a19.54 19.54 0 00.52 7.36c.78 2.35 2.64 4.5 5.08 4.91a4.38 4.38 0 004.2-1.52 7.1 7.1 0 001.1-3.54 57.42 57.42 0 012.1-11.46c1.18-3.41 3.08-6.52 4.69-9.75 2.93-5.89 5.22-15.93-2.3-19.67-6.96-3.46-10.96 9.12-12.39 13.84z" class="b"/>
  <path d="M87 163.88c-1.61 3.23-3.5 6.33-4.68 9.75a56.57 56.57 0 00-2.12 11.44 7.56 7.56 0 01-1.1 3.54 4.39 4.39 0 01-4.19 1.52 6.57 6.57 0 01-4.56-3.65 5.56 5.56 0 001.74.62 4.39 4.39 0 004.2-1.49 7.44 7.44 0 001.1-3.54 56.67 56.67 0 012.11-11.46c1.18-3.41 3.08-6.52 4.69-9.75 2.23-4.47 4.08-11.36 1.53-16C92 148.9 89.8 158.27 87 163.88z" fill="url(#l)"/>
  <path d="M73.45 184.49a31.16 31.16 0 00-3-1.23 8.7 8.7 0 00-2.27-.32 1.22 1.22 0 00-.6.09 1.31 1.31 0 00-.49.55 10.57 10.57 0 00-1.34 5.8 1.94 1.94 0 00.23.93 2 2 0 00.83.63c3.65 1.87 7.74 3.27 11.78 2.63a2.65 2.65 0 001.85-.92 3.32 3.32 0 00.36-1.43 11.76 11.76 0 011.14-3.8c.51-1 .13-1.09-.82-1.21s-1.78-.22-2.66-.37a22.28 22.28 0 01-5.01-1.35z" class="b"/>
  <use href="#q" fill="#bb826c"/>
  <use href="#q" fill="url(#m)"/>
  <path d="M150.75 159.95l-6.07 8.89s1.41 2 2.82 1.19l6.07-9.64z" fill="url(#n)"/>
</svg>
